<svg width="100" height="100" viewBox="0 0 100 100" fill="none" xmlns="http://www.w3.org/2000/svg">
<rect x="52.1599" y="4" width="43.2" height="43.2" rx="2.16" fill="white"/>
<rect x="4.63989" y="52.5999" width="43.2" height="43.2" rx="2.16" fill="white"/>
<path d="M45.6799 4C46.8728 4.00002 47.8401 4.96724 47.8401 6.16016V45.04C47.8401 46.2329 46.8728 47.2002 45.6799 47.2002H6.80005C5.60713 47.2002 4.63991 46.233 4.63989 45.04V6.16016C4.63989 4.96722 5.60711 4 6.80005 4H45.6799ZM17.5999 10.4795V15.0762H23.2092V35.3877H17.5999V39.9639H34.6506V35.3877H28.8997V15.0762H34.6506V10.4795H17.5999Z" fill="white"/>
<path d="M93.2 52.5999C94.3929 52.5999 95.3601 53.5671 95.3601 54.76V93.6399C95.3601 94.8328 94.3929 95.8 93.2 95.8H54.3201C53.1271 95.8 52.1599 94.8328 52.1599 93.6399V54.76C52.1599 53.5671 53.1271 52.5999 54.3201 52.5999H93.2ZM69.0417 60.1594V65.5266H64.0398V69.677H69.0417V79.6409C69.0418 81.0852 69.2312 82.3271 69.6091 83.3665C69.9871 84.3923 70.5264 85.2363 71.2283 85.8977C71.9167 86.5727 72.7475 87.0718 73.7195 87.3958C74.7049 87.7062 75.7984 87.8616 76.9998 87.8616C77.6208 87.8616 78.249 87.8285 78.8835 87.761C79.5313 87.707 80.1521 87.6258 80.7458 87.5178C81.3398 87.4098 81.901 87.2745 82.4275 87.1125C82.9538 86.9371 83.4131 86.7346 83.8044 86.5051L83.2576 82.637C83.0011 82.7045 82.6904 82.7726 82.3259 82.8401C81.9751 82.9076 81.597 82.9677 81.1921 83.0217C80.7737 83.0892 80.3346 83.1433 79.8757 83.1838C79.4303 83.2243 78.9913 83.2454 78.5593 83.2454C77.9653 83.2454 77.4252 83.1772 76.9392 83.0422C76.4667 82.9072 76.0618 82.6777 75.7244 82.3538C75.3869 82.0433 75.1233 81.6252 74.9343 81.0989C74.7589 80.559 74.6717 79.8903 74.6716 79.094V69.677H82.8523V65.5266H74.6716V60.1594H69.0417Z" fill="white"/>
</svg>
